<svg width="41" height="48" viewBox="0 0 41 48" fill="none" xmlns="http://www.w3.org/2000/svg">
<path d="M8.49986 11C10.9861 11 13 8.9842 13 6.49962C13 4.0134 10.9861 2 8.49986 2C6.01389 2 4 4.0134 4 6.49962C4 8.9842 6.01398 11 8.49986 11Z" fill="white"/>
<path d="M24.09 11.035H23.1919C23.2067 10.9655 23.2218 10.8929 23.2386 10.8126C23.5474 9.33663 24.2137 6.19954 24.5609 4.86396C24.9094 3.52698 25.6148 2.56513 26.4955 1.92371C27.3759 1.28294 28.441 0.964917 29.5 0.964917C30.5594 0.964917 31.625 1.28294 32.5052 1.92371C33.3859 2.56513 34.0909 3.52698 34.4399 4.86396C34.671 5.75246 35.0451 7.44765 35.359 8.91054C35.5163 9.64388 35.6589 10.3201 35.7623 10.8125C35.779 10.8928 35.7941 10.9654 35.8085 11.0349H34.9104V11.9998H37L36.8807 11.4208C36.8804 11.42 36.6248 10.1787 36.3093 8.70896C35.9938 7.23994 35.6205 5.5479 35.3808 4.62226C34.9826 3.08296 34.1389 1.91349 33.079 1.14459C32.0196 0.375122 30.7531 0 29.4999 0C28.2474 0 26.981 0.375122 25.9213 1.14477C24.8619 1.91368 24.0182 3.08315 23.6199 4.62245C23.3802 5.548 23.007 7.24013 22.6911 8.70914C22.3761 10.1788 22.1205 11.4202 22.1196 11.421L22 12H24.09V11.035Z" fill="white"/>
<path d="M29.4995 3C27.5661 3 26 4.5658 26 6.50004C26 8.43279 27.5661 10 29.4995 10C31.4337 10 33 8.43279 33 6.50004C33 4.5658 31.4337 3 29.4995 3Z" fill="white"/>
<path d="M7 12V15L8.4997 14.1326L10 15V12L8.4997 12.8674L7 12Z" fill="white"/>
<path d="M37.4811 30.0079V16.4712C37.4811 15.3956 36.8986 14.2681 36.052 13.4153C35.283 12.6449 34.2943 12.0988 33.3243 12.0126C33.2347 12.0047 33.1489 12 33.059 12H32.156H27.4618C27.2341 12 27.0063 12.0126 26.7829 12.0384C26.4391 12.08 26.1034 12.1483 25.7791 12.2455C24.7412 12.5555 23.8045 13.1509 23.0765 13.9629C22.6703 14.4108 22.3308 14.9287 22.0694 15.5014L18.7413 22.8511L15.4133 15.4998C14.7688 14.0757 13.6161 12.9939 12.2304 12.4315L8.13925 18.9063L3.81331 12.0611C1.88533 12.4423 0 14.534 0 16.4711V31.3274C0 32.3983 0.858282 33.2677 1.91753 33.2677C2.43894 33.2677 1.91753 33.2677 3.25615 33.2677L3.98478 45.9374C3.98478 47.0766 4.89972 48 6.02692 48C6.50222 48 7.37907 48 8.25565 48C9.13335 48 10.0098 48 10.4855 48C11.6127 48 12.5272 47.0766 12.5272 45.9374L13.2563 33.2677L13.5764 21.3519L17.4189 29.8408C17.5349 30.0965 17.9834 30.6825 18.7242 30.6825L18.725 30.6818L18.7258 30.6833C19.5057 30.6833 19.9461 30.098 20.0617 29.8407L23.8161 21.5526L24.1742 25.2314C23.312 26.6004 18.5205 34.082 17.9723 41.6765H25.6665L26.1147 46.3132C26.1147 47.1432 26.7786 47.8148 27.6031 47.8148H30.8538C31.6745 47.8148 32.3388 47.1432 32.3388 46.3132L33.0108 41.6765H41C40.6907 37.3944 39.0261 33.1421 37.4811 30.0079ZM19.044 40.6958C19.6004 36.2559 21.6704 31.0277 24.944 25.8348L24.9926 25.758L25.1725 25.4723L25.1396 25.1357L24.7814 21.457L24.0869 14.3223C24.6033 13.8358 25.2168 13.4663 25.888 13.2396C25.9889 15.2364 26.1697 18.5463 29.5291 18.5463C32.9874 18.5463 33.0522 15.1453 33.091 13.1141C33.0919 13.0694 33.0925 13.0254 33.0934 12.9823C33.1439 12.9823 33.1927 12.9854 33.2384 12.9894C33.817 13.0411 34.4664 13.3409 35.038 13.8116L33.9182 25.2708L33.8856 25.6058L34.0622 25.8898L34.0897 25.9338C34.5239 26.632 35.5413 28.2679 36.6125 30.4457C38.4021 34.0759 39.5378 37.5945 39.9273 40.696H19.044V40.6958Z" fill="white"/>
</svg>
