<svg  viewBox="0 0 32 32" fill="none" xmlns="http://www.w3.org/2000/svg">
<path d="M28.8275 8.24762L15.5413 21.5317C14.2183 22.8546 10.2909 23.4672 9.41349 22.59C8.5361 21.7127 9.13496 17.786 10.458 16.4631L23.7581 3.16507C24.0861 2.80729 24.4831 2.51968 24.9255 2.31959C25.3676 2.11949 25.8459 2.01102 26.3312 2.00079C26.8164 1.99059 27.2989 2.07879 27.7491 2.2601C28.1994 2.44141 28.6083 2.71211 28.951 3.05577C29.2937 3.39943 29.5634 3.80896 29.7434 4.25964C29.9235 4.71034 30.0105 5.19284 29.999 5.67804C29.9874 6.16325 29.8775 6.64113 29.6763 7.08275C29.4749 7.52437 29.1862 7.92066 28.8275 8.24762Z" stroke="white" stroke-width="4" stroke-linecap="round" stroke-linejoin="round"/>
<path d="M14.5 5H7.55556C6.08212 5 4.66914 5.58531 3.62726 6.62718C2.5854 7.66906 2 9.08212 2 10.5556V24.4444C2 25.9179 2.5854 27.331 3.62726 28.3728C4.66914 29.4147 6.08212 30 7.55556 30H22.8333C25.9028 30 27 27.5 27 24.4444V17.5" stroke="white" stroke-width="4" stroke-linecap="round" stroke-linejoin="round"/>
</svg>
