<svg width="27" height="25" viewBox="0 0 27 25" fill="none" xmlns="http://www.w3.org/2000/svg">
<path fill-rule="evenodd" clip-rule="evenodd" d="M8.99192 6.51185L12.4516 10.4818C12.9493 10.9779 13.7565 10.9779 14.2573 10.4818L17.7155 6.51185C18.2115 6.01422 18.2889 5.12796 17.7929 4.63191H14.9429V1.59558C14.9429 0.71248 14.2589 0 13.4137 0C12.5685 0 11.8829 0.71248 11.8829 1.59558V4.63191H9.06933C8.5717 5.12954 8.49429 6.01264 8.99192 6.51185Z" fill="white"/>
<path d="M16.627 15.5861H10.2589V17.2148H16.627V15.5861Z" fill="white"/>
<path fill-rule="evenodd" clip-rule="evenodd" d="M22.8861 1.37762H16.627V2.91791H21.597L23.7502 14.0222H3.15781L5.38056 2.91791H10.2099V1.37762H4.05513L0.800781 15.2086V21.7963C0.800781 23.9037 1.54644 25.0001 3.6507 25.0001H23.0504C25.0188 25.0001 26.0283 24.1675 26.0283 21.6651V15.2086L22.8861 1.37762ZM16.6033 17.1659H10.2352V15.5372H16.6033V17.1659Z" fill="white"/>
</svg>
