<svg  viewBox="0 0 20 24" fill="none" xmlns="http://www.w3.org/2000/svg">
<path d="M0 4.16667C0 3.70644 0.383756 3.33335 0.857145 3.33335L3.81741 3.3329C4.40558 3.31841 4.92447 2.95481 5.1246 2.41691C5.12987 2.40277 5.13591 2.38533 5.15761 2.32203L5.28517 1.94993C5.36322 1.72179 5.43122 1.52302 5.52639 1.34536C5.90232 0.643493 6.59787 0.156106 7.40163 0.0313232C7.60508 -0.000264291 7.82056 -0.00013122 8.06789 2.07802e-05H11.9323C12.1797 -0.00013122 12.3951 -0.000264291 12.5986 0.0313232C13.4023 0.156106 14.0979 0.643493 14.4738 1.34536C14.569 1.52302 14.637 1.72179 14.715 1.94993L14.8426 2.32203C14.8642 2.38533 14.8703 2.40277 14.8756 2.41691C15.0758 2.95481 15.6976 3.31885 16.2857 3.33335H19.1429C19.6162 3.33335 20 3.70644 20 4.16667C20 4.62691 19.6162 5 19.1429 5H0.857145C0.383756 5 0 4.62691 0 4.16667Z" fill="white"/>
<path fill-rule="evenodd" clip-rule="evenodd" d="M7.22949 10.0058C7.57295 9.94239 7.87919 10.4051 7.91353 11.0391L8.33018 18.7313C8.36451 19.3653 8.11394 19.9308 7.77053 19.9942C7.42707 20.0576 7.1208 19.5949 7.08646 18.9609L6.66981 11.2687C6.63546 10.6347 6.88604 10.0692 7.22949 10.0058Z" fill="white"/>
<path fill-rule="evenodd" clip-rule="evenodd" d="M12.7705 10.0058C13.1139 10.0692 13.3645 10.6347 13.3302 11.2687L12.9135 18.9609C12.8792 19.5949 12.5729 20.0576 12.2295 19.9942C11.886 19.9308 11.6355 19.3653 11.6698 18.7313L12.0865 11.0391C12.1208 10.4051 12.427 9.94239 12.7705 10.0058Z" fill="white"/>
<path opacity="0.5" d="M9.51855 23.3333H10.4814C13.7941 23.3333 15.4506 23.3333 16.5275 22.3622C17.6045 21.3911 17.7146 19.7982 17.935 16.6122L18.2525 12.0216C18.3721 10.293 18.4319 9.42872 17.8915 8.88102C17.3513 8.33331 16.4389 8.33331 14.6143 8.33331H5.38576C3.56102 8.33331 2.64865 8.33331 2.10838 8.88102C1.56811 9.42872 1.62789 10.293 1.74747 12.0216L2.06498 16.6122C2.28535 19.7982 2.39552 21.3911 3.47248 22.3622C4.54943 23.3333 6.20581 23.3333 9.51855 23.3333Z" fill="white"/>
</svg>
