<svg  viewBox="0 0 27 39" fill="none" xmlns="http://www.w3.org/2000/svg">
<path opacity="0.4" d="M13.4 0C8.12059 0 3.82856 3.8669 3.82856 8.62336C3.82856 13.2891 7.87879 17.0652 13.1582 17.2286C13.3194 17.2104 13.4806 17.2104 13.6015 17.2286C13.6418 17.2286 13.6619 17.2286 13.7022 17.2286C13.7224 17.2286 13.7224 17.2286 13.7425 17.2286C18.901 17.0652 22.9513 13.2891 22.9714 8.62336C22.9714 3.8669 18.6794 0 13.4 0Z" fill="#E55606"/>
<path d="M23.0693 23.6567C17.7588 20.1905 9.09832 20.1905 3.74973 23.6567C1.33239 25.2407 0 27.3838 0 29.676C0 31.9681 1.33239 34.0926 3.73069 35.658C6.39547 37.4097 9.89768 38.2856 13.4 38.2856C16.9022 38.2856 20.4045 37.4097 23.0693 35.658C25.4676 34.0739 26.8 31.9495 26.8 29.6387C26.781 27.3465 25.4676 25.2221 23.0693 23.6567Z" fill="#E55606"/>
</svg>
