<svg viewBox="0 0 26 26" fill="none" xmlns="http://www.w3.org/2000/svg">
<path d="M11.2919 9.04502C12.0519 7.68167 12.4319 7 13 7C13.5681 7 13.9481 7.68167 14.7081 9.04502L14.9048 9.39774C15.1206 9.78516 15.2286 9.97886 15.397 10.1067C15.5654 10.2345 15.7751 10.2819 16.1945 10.3768L16.5762 10.4632C18.0521 10.7972 18.79 10.9641 18.9655 11.5287C19.1411 12.0932 18.6381 12.6814 17.632 13.858L17.3716 14.1623C17.0857 14.4966 16.9428 14.6638 16.8785 14.8707C16.8142 15.0774 16.8358 15.3005 16.879 15.7465L16.9183 16.1526C17.0705 17.7223 17.1465 18.5073 16.6869 18.8561C16.2273 19.2051 15.5364 18.8869 14.1546 18.2507L13.7972 18.0861C13.4044 17.9053 13.2081 17.8149 13 17.8149C12.7919 17.8149 12.5956 17.9053 12.2028 18.0861L11.8454 18.2507C10.4636 18.8869 9.77271 19.2051 9.31308 18.8561C8.85347 18.5073 8.92953 17.7223 9.08164 16.1526L9.12099 15.7465C9.16421 15.3005 9.18582 15.0774 9.12151 14.8707C9.05721 14.6638 8.91425 14.4966 8.62835 14.1623L8.36806 13.858C7.36195 12.6814 6.85889 12.0932 7.03445 11.5287C7.21001 10.9641 7.94792 10.7972 9.42372 10.4632L9.80553 10.3768C10.2249 10.2819 10.4346 10.2345 10.603 10.1067C10.7714 9.97886 10.8794 9.78516 11.0952 9.39774L11.2919 9.04502Z" fill="#FFA84E"/>
<path opacity="0.8" fill-rule="evenodd" clip-rule="evenodd" d="M13 0C13.5009 0 13.907 0.406072 13.907 0.906977V3.32558C13.907 3.82649 13.5009 4.23256 13 4.23256C12.4991 4.23256 12.093 3.82649 12.093 3.32558V0.906977C12.093 0.406072 12.4991 0 13 0ZM0 13C0 12.4991 0.406072 12.093 0.906977 12.093H3.32558C3.82649 12.093 4.23256 12.4991 4.23256 13C4.23256 13.5009 3.82649 13.907 3.32558 13.907H0.906977C0.406072 13.907 0 13.5009 0 13ZM21.7674 13C21.7674 12.4991 22.1735 12.093 22.6744 12.093H25.093C25.5939 12.093 26 12.4991 26 13C26 13.5009 25.5939 13.907 25.093 13.907H22.6744C22.1735 13.907 21.7674 13.5009 21.7674 13ZM13 21.7674C13.5009 21.7674 13.907 22.1735 13.907 22.6744V25.093C13.907 25.5939 13.5009 26 13 26C12.4991 26 12.093 25.5939 12.093 25.093V22.6744C12.093 22.1735 12.4991 21.7674 13 21.7674Z" fill="#FFA84E"/>
<g opacity="0.5">
<path d="M20.8972 5.1028C21.2514 5.457 21.2514 6.03127 20.8972 6.38547L20.4822 6.80058C20.128 7.15477 19.5537 7.15477 19.1995 6.80058C18.8453 6.44638 18.8453 5.87212 19.1995 5.51791L19.6147 5.1028C19.9689 4.74861 20.5432 4.74861 20.8972 5.1028Z" fill="#FFA84E"/>
<path d="M5.1028 5.10294C5.457 4.74873 6.03127 4.74873 6.38547 5.10294L6.80058 5.51804C7.15477 5.87224 7.15477 6.4465 6.80058 6.80071C6.44638 7.1549 5.87212 7.1549 5.51791 6.80071L5.1028 6.3856C4.74861 6.03139 4.74861 5.45713 5.1028 5.10294Z" fill="#FFA84E"/>
<path d="M6.80044 19.1996C7.15464 19.5538 7.15464 20.1281 6.80044 20.4823L6.38559 20.8971C6.0314 21.2513 5.45712 21.2513 5.10293 20.8971C4.74873 20.543 4.74873 19.9687 5.10293 19.6145L5.51778 19.1996C5.87197 18.8454 6.44624 18.8454 6.80044 19.1996Z" fill="#FFA84E"/>
<path d="M19.1995 19.2C19.5537 18.8458 20.128 18.8458 20.4822 19.2L20.897 19.6148C21.2512 19.969 21.2512 20.5433 20.897 20.8975C20.5428 21.2517 19.9685 21.2517 19.6143 20.8975L19.1995 20.4826C18.8453 20.1284 18.8453 19.5542 19.1995 19.2Z" fill="#FFA84E"/>
</g>
</svg>
